<svg width="326" height="44" viewBox="0 0 326 44" fill="none" xmlns="http://www.w3.org/2000/svg">
<path d="M313.27 18.014L305.065 0H157.356H20.9348L12.7296 18.014L10.4071 16.8697L0 22.0003L10.4071 27.131L12.7296 25.9859L20.9348 44H157.356H305.065L313.27 25.9859L315.593 27.131L326 22.0003L315.593 16.8697L313.27 18.014ZM301.415 17.1204L291.884 8.90258V35.7815L301.415 27.5638L306.652 22.7228L308.696 23.7309L302.791 40.5691H285.119V3.43024H302.791L308.696 20.2677L306.652 21.2758L301.415 17.1204ZM308.011 22.0003L308.012 21.9997L308.011 21.999L310.055 20.9909L311.951 21.9997L310.055 23.0084L308.011 22.0003ZM313.303 22.7187L315.022 23.6343L313.234 24.5745L311.459 23.6994L313.303 22.7187ZM313.303 21.2813L311.458 20.3006L313.233 19.4254L315.021 20.3657L313.303 21.2813ZM24.5852 26.879L34.116 35.0967V8.90258L24.5852 17.1204L19.3478 21.2758L17.3024 20.2677L23.2088 3.43024H40.8807V40.5691H23.2088L17.3024 23.7309L19.3478 22.7228L24.5852 26.879ZM17.9884 21.999V22.0003L15.9441 23.0084L14.0474 21.9997L15.9441 20.9909L17.9884 21.999ZM14.5418 23.7001L12.7668 24.5752L10.9793 23.635L12.6981 22.7194L14.5418 23.7001ZM12.6981 21.2813L10.9793 20.3657L12.7668 19.4254L14.5418 20.3006L12.6981 21.2813ZM10.4071 25.738L2.82479 21.9997L10.4071 18.2612L11.3634 18.7324L8.27052 20.3602L11.3476 21.9997L8.27052 23.6384L11.3645 25.2662L10.4071 25.738ZM304.403 42.918H157.357H21.5982L14.133 25.2936L15.9002 24.4225L22.5398 41.6511H42.6591V2.34891H22.5398L15.9002 19.5775L14.133 18.7057L21.5982 1.08131H157.357H304.403L311.868 18.7057L310.101 19.5775L303.461 2.34891H283.342V41.6511H303.461L310.101 24.4225L311.868 25.2936L304.403 42.918ZM315.593 25.738L314.637 25.2669L317.729 23.6391L314.652 22.0003L317.729 20.3609L314.637 18.7331L315.593 18.2619L323.175 22.0003L315.593 25.738Z" fill="#D5B69F"/>
<path d="M304.403 42.918H157.357H21.5982L14.133 25.2936L15.9002 24.4225L22.5398 41.6511H42.6591V2.34891H22.5398L15.9002 19.5775L14.133 18.7057L21.5982 1.08131H157.357H304.403L311.868 18.7057L310.101 19.5775L303.461 2.34891H283.342V41.6511H303.461L310.101 24.4225L311.868 25.2936L304.403 42.918Z" fill="#8E6657" fill-opacity="0.25"/>
</svg>
