<svg width="315" height="18" viewBox="0 0 315 18" fill="none" xmlns="http://www.w3.org/2000/svg">
<path d="M131 8.99999L135.001 11.5L139 8.99999L135.001 6.5L131 8.99999Z" fill="#D5B69F"/>
<path d="M0 8.99998L8.99832 11.5L18 8.99998L8.99832 6.5L0 8.99998Z" fill="#D5B69F"/>
<path d="M297 8.99998L306.002 11.5L315 8.99998L306.002 6.5L297 8.99998Z" fill="#D5B69F"/>
<path d="M139 8.99999L143 11.5L147 8.99999L143 6.5L139 8.99999Z" fill="#D5B69F"/>
<path d="M168 8.99999L171.999 11.5L176 8.99999L171.999 6.5L168 8.99999Z" fill="#D5B69F"/>
<path d="M176 8.99999L180.001 11.5L184 8.99999L180.001 6.5L176 8.99999Z" fill="#D5B69F"/>
<path d="M153.827 13.0562L156.399 8.96999L153.709 4.96658C153.683 4.92815 153.728 4.88099 153.764 4.90873L157.496 7.7935L161.305 5.03474C161.34 5.00938 161.383 5.05456 161.359 5.0922L158.8 9.19229L161.338 13.0328C161.363 13.0709 161.319 13.118 161.284 13.0907L157.703 10.3688L153.88 13.1141C153.845 13.1394 153.803 13.0939 153.827 13.0562Z" fill="#D5B69F"/>
<path d="M157.595 17.9471L156.215 10.3124L149.051 9.06496C148.983 9.05307 148.983 8.94727 149.051 8.93538L156.215 7.68796L157.595 0.0532467C157.608 -0.0176836 157.702 -0.0176833 157.715 0.0528507L159.124 7.68796L165.949 8.93538C166.017 8.94767 166.017 9.05228 165.949 9.06457L159.124 10.312L157.715 17.9471C157.702 18.0176 157.608 18.0176 157.595 17.9471Z" fill="#D5B69F"/>
</svg>
