<svg width="631" height="17" viewBox="0 0 631 17" fill="none" xmlns="http://www.w3.org/2000/svg">
<path d="M288 8.99999L292.001 11.5L296 8.99999L292.001 6.5L288 8.99999Z" fill="#D5B69F"/>
<path d="M0 9.49998L8.99832 12L18 9.49998L8.99832 7L0 9.49998Z" fill="#D5B69F"/>
<path d="M613 9.49998L622.002 12L631 9.49998L622.002 7L613 9.49998Z" fill="#D5B69F"/>
<path d="M296 8.99999L300 11.5L304 8.99999L300 6.5L296 8.99999Z" fill="#D5B69F"/>
<path d="M346 8.99999L349.999 11.5L354 8.99999L349.999 6.5L346 8.99999Z" fill="#D5B69F"/>
<path d="M354 8.99999L358.001 11.5L362 8.99999L358.001 6.5L354 8.99999Z" fill="#D5B69F"/>
<path d="M321.131 11.9445L323.815 8.46517L321.008 5.05636C320.981 5.02363 321.027 4.98348 321.065 5.0071L324.961 7.46341L328.937 5.1144C328.973 5.0928 329.018 5.13127 328.993 5.16332L326.321 8.65445L328.971 11.9246C328.997 11.957 328.951 11.9971 328.914 11.9738L325.177 9.65621L321.187 11.9938C321.15 12.0153 321.106 11.9765 321.131 11.9445Z" fill="#D5B69F"/>
<path d="M325.101 16.95L323.639 9.73947L316.054 8.56135C315.982 8.55012 315.982 8.4502 316.054 8.43897L323.639 7.26085L325.101 0.0502886C325.115 -0.0167011 325.214 -0.0167009 325.228 0.0499146L326.72 7.26085L333.946 8.43897C334.018 8.45058 334.018 8.54938 333.946 8.56098L326.72 9.7391L325.228 16.95C325.214 17.0167 325.115 17.0167 325.101 16.95Z" fill="#D5B69F"/>
</svg>
