<svg width="57" height="57" viewBox="0 0 57 57" fill="none" xmlns="http://www.w3.org/2000/svg">
<path fill-rule="evenodd" clip-rule="evenodd" d="M42.598 14.3136C43.379 15.0946 43.379 16.3609 42.598 17.142L17.1421 42.5978C16.3611 43.3789 15.0948 43.3789 14.3137 42.5978C13.5327 41.8168 13.5327 40.5505 14.3137 39.7694L39.7696 14.3136C40.5506 13.5325 41.8169 13.5325 42.598 14.3136Z" fill="#D5B69F"/>
<path fill-rule="evenodd" clip-rule="evenodd" d="M14.3138 14.3139C15.0949 13.5328 16.3612 13.5328 17.1422 14.3139L42.5981 39.7697C43.3791 40.5508 43.3791 41.8171 42.5981 42.5981C41.817 43.3792 40.5507 43.3792 39.7697 42.5981L14.3138 17.1423C13.5328 16.3613 13.5328 15.0949 14.3138 14.3139Z" fill="#D5B69F"/>
</svg>
